<svg width="663" height="436" viewBox="0 0 663 436" fill="none" xmlns="http://www.w3.org/2000/svg">
<g filter="url(#filter0_d)">
<path d="M653 11H52.4665H25C19.4772 11 15 15.4772 15 21V407C15 412.523 19.4771 417 25 417H389.665H653C658.523 417 663 412.523 663 407V21C663 15.4772 658.523 11 653 11Z" fill="url(#paint0_linear)" fill-opacity="0.75" shape-rendering="crispEdges"/>
</g>
<path d="M16.5 51.5H317C322.523 51.5 327 55.9772 327 61.5V107.5C327 113.023 331.477 117.5 337 117.5H509.5C515.023 117.5 519.5 121.977 519.5 127.5V290C519.5 295.523 523.977 300 529.5 300H662" stroke="white" stroke-opacity="0.75" stroke-width="1.5"/>
<defs>
<filter id="filter0_d" x="0" y="0" width="678" height="436" filterUnits="userSpaceOnUse" color-interpolation-filters="sRGB">
<feFlood flood-opacity="0" result="BackgroundImageFix"/>
<feColorMatrix in="SourceAlpha" type="matrix" values="0 0 0 0 0 0 0 0 0 0 0 0 0 0 0 0 0 0 127 0" result="hardAlpha"/>
<feOffset dy="4"/>
<feGaussianBlur stdDeviation="7.5"/>
<feComposite in2="hardAlpha" operator="out"/>
<feColorMatrix type="matrix" values="0 0 0 0 0 0 0 0 0 0 0 0 0 0 0 0 0 0 0.19 0"/>
<feBlend mode="normal" in2="BackgroundImageFix" result="effect1_dropShadow"/>
<feBlend mode="normal" in="SourceGraphic" in2="effect1_dropShadow" result="shape"/>
</filter>
<linearGradient id="paint0_linear" x1="832.545" y1="-324.484" x2="69.3708" y2="114.129" gradientUnits="userSpaceOnUse">
<stop offset="0.03125" stop-color="#6D739F"/>
<stop offset="0.916667" stop-color="#3D4371"/>
</linearGradient>
</defs>
</svg>
